<svg xmlns="http://www.w3.org/2000/svg" aria-hidden="true" style="position:absolute;width:0;height:0;overflow:hidden"><defs><symbol id="icon-diligence" viewBox="0 0 75 32"><path fill="#f4f4fd" d="M1.143.143h73.143a1 1 0 0 1 1 1v29.714a1 1 0 0 1-1 1H1.143a1 1 0 0 1-1-1V1.143a1 1 0 0 1 1-1z" style="fill:var(--color1, #f4f4fd)"/><path fill="#4d5ae5" d="M37.1 15.408h.609v2.741H37.1v-2.741zM39.537 16.627h.609v1.523h-.609v-1.523zM34.663 17.541h.609v.609h-.609v-.609zM32.836 17.236h.609v.914h-.609v-.914z" style="fill:var(--color2, #4d5ae5)"/><path fill="#2e2f42" d="M29.485 23.023h14.621a.914.914 0 0 0 .914-.914v-1.218a.914.914 0 0 0-.914-.914h-.305v-7.596l1.73-1.639a.92.92 0 1 0-.426-.436l-1.304 1.236v-.703a.914.914 0 0 0-.914-.914H30.703a.914.914 0 0 0-.914.914v9.138h-.305a.914.914 0 0 0-.914.914v1.218c0 .505.409.914.914.914zM45.934 9.621a.305.305 0 1 1 0 .61.305.305 0 0 1 0-.61zm-15.535 1.218c0-.168.136-.305.305-.305h12.184c.168 0 .305.136.305.305v1.279l-.609.579v-1.249a.305.305 0 0 0-.305-.305H31.313a.305.305 0 0 0-.305.305v7.615c0 .168.136.305.305.305h10.966a.305.305 0 0 0 .305-.305v-5.528l.609-.577v7.019H30.4v-9.138zm2.742 3.96a.914.914 0 1 0 .633 1.571l1.059.531a.304.304 0 0 0 .364-.07l2.251-2.532 2.213 1.658a.306.306 0 0 0 .392-.022l1.923-1.822v4.646H31.619v-7.006h10.357v1.52l-2.155 2.041-2.231-1.673a.304.304 0 0 0-.41.041l-2.282 2.567-.853-.427c.006-.037.01-.073.012-.111a.914.914 0 0 0-.914-.914zm.304.914a.306.306 0 1 1-.611-.001.306.306 0 0 1 .611.001zm1.828 4.874h3.046v.305a.305.305 0 0 1-.305.305h-2.437a.305.305 0 0 1-.305-.305v-.305zm-6.092.304c0-.168.137-.305.305-.305h5.178v.305c0 .505.409.914.914.914h2.437a.914.914 0 0 0 .914-.914v-.305h5.178c.168 0 .305.136.305.305v1.218a.306.306 0 0 1-.305.305H29.486a.305.305 0 0 1-.305-.305v-1.218z" style="fill:var(--color3, #2e2f42)"/></symbol><symbol id="icon-facebook" viewBox="0 0 32 32"><path fill="#4d5ae5" d="M32 16c0 4.418-1.791 8.418-4.686 11.314S20.419 32 16 32c-4.418 0-8.418-1.791-11.314-4.686S0 20.419 0 16c0-4.418 1.791-8.418 4.686-11.314S11.581 0 16 0c4.418 0 8.418 1.791 11.314 4.686S32 11.581 32 16z" style="fill:var(--color2, #4d5ae5)"/><path fill="#f4f4fd" d="M18.132 11.725h1.169V9.69a15.04 15.04 0 0 0-1.702-.09c-1.685 0-2.839 1.06-2.839 3.008V14.4h-1.859v2.275h1.859V22.4h2.279v-5.724h1.784l.283-2.275h-2.068v-1.567c0-.658.178-1.108 1.094-1.108z" style="fill:var(--color1, #f4f4fd)"/></symbol><symbol id="icon-in" viewBox="0 0 32 32"><path fill="#4d5ae5" d="M32 16c0 4.418-1.791 8.418-4.686 11.314S20.419 32 16 32c-4.418 0-8.418-1.791-11.314-4.686S0 20.419 0 16c0-4.418 1.791-8.418 4.686-11.314S11.581 0 16 0c4.418 0 8.418 1.791 11.314 4.686S32 11.581 32 16z" style="fill:var(--color2, #4d5ae5)"/><path fill="#f4f4fd" d="M22.397 22.4v-.001h.003v-4.694c0-2.297-.494-4.066-3.179-4.066-1.291 0-2.157.708-2.51 1.38h-.037v-1.165h-2.546V22.4h2.651v-4.231c0-1.114.211-2.192 1.591-2.192 1.36 0 1.38 1.272 1.38 2.263v4.161h2.648zM9.811 13.854h2.654V22.4H9.811v-8.546zM11.137 9.6c-.849 0-1.537.689-1.537 1.537s.688 1.551 1.537 1.551 1.537-.703 1.537-1.551c0-.849-.689-1.537-1.537-1.537z" style="fill:var(--color1, #f4f4fd)"/></symbol><symbol id="icon-instagram" viewBox="0 0 32 32"><path fill="#4d5ae5" d="M32 16c0 4.418-1.791 8.418-4.686 11.314S20.419 32 16 32c-4.418 0-8.418-1.791-11.314-4.686S0 20.419 0 16c0-4.418 1.791-8.418 4.686-11.314S11.581 0 16 0c4.418 0 8.418 1.791 11.314 4.686S32 11.581 32 16z" style="fill:var(--color2, #4d5ae5)"/><path fill="#f4f4fd" d="M22.387 13.363c-.03-.68-.14-1.148-.298-1.553a3.136 3.136 0 0 0-.74-1.135 3.153 3.153 0 0 0-1.133-.738c-.408-.158-.873-.268-1.553-.298-.685-.033-.903-.04-2.641-.04s-1.955.008-2.638.038c-.68.03-1.148.14-1.553.298-.43.163-.815.413-1.135.74-.325.32-.578.708-.738 1.133-.158.408-.268.873-.298 1.553-.032.685-.04.903-.04 2.641s.008 1.955.038 2.638c.03.68.14 1.148.298 1.553.162.43.415.815.74 1.135.32.325.708.578 1.133.738.408.158.873.268 1.553.298.683.03.9.038 2.638.038s1.955-.007 2.638-.038c.68-.03 1.148-.14 1.553-.298a3.278 3.278 0 0 0 1.873-1.873c.157-.408.268-.873.298-1.553.03-.683.038-.9.038-2.638s-.003-1.955-.033-2.638zm-1.152 5.226c-.028.625-.133.963-.22 1.188-.215.558-.658 1-1.215 1.215-.225.088-.565.192-1.188.22-.675.03-.878.038-2.585.038s-1.913-.007-2.586-.038c-.625-.027-.963-.132-1.188-.22a1.966 1.966 0 0 1-.735-.478 1.998 1.998 0 0 1-.478-.735c-.088-.225-.193-.565-.22-1.188-.03-.675-.038-.878-.038-2.586s.007-1.913.038-2.585c.027-.625.132-.963.22-1.188.103-.278.265-.53.48-.735.207-.212.458-.375.735-.478.225-.088.565-.192 1.188-.22.675-.03.878-.038 2.586-.038 1.71 0 1.913.008 2.586.038.625.028.963.133 1.188.22.277.102.53.265.735.478.212.208.375.458.478.735.088.225.192.565.22 1.188.03.675.038.878.038 2.585s-.008 1.908-.038 2.583z" style="fill:var(--color1, #f4f4fd)"/><path fill="#f4f4fd" d="M16.024 12.713a3.29 3.29 0 0 0 0 6.576 3.29 3.29 0 0 0 0-6.576zm0 5.421a2.133 2.133 0 1 1 0-4.266 2.133 2.133 0 0 1 0 4.266zM20.21 12.583a.768.768 0 1 1-1.536 0 .768.768 0 0 1 1.536 0z" style="fill:var(--color1, #f4f4fd)"/></symbol><symbol id="icon-punctuality" viewBox="0 0 75 32"><path fill="#f4f4fd" d="M1.143.143h73.143a1 1 0 0 1 1 1v29.714a1 1 0 0 1-1 1H1.143a1 1 0 0 1-1-1V1.143a1 1 0 0 1 1-1z" style="fill:var(--color1, #f4f4fd)"/><path fill="#2e2f42" d="M46.455 15.601a8.746 8.746 0 1 0-11.406 8.332.385.385 0 0 0 .303-.038.365.365 0 0 0 .162-.204l2.209-7a1.094 1.094 0 1 0-.481-2.078l-2.918-2.918a.364.364 0 0 0-.515.515l2.916 2.919a1.071 1.071 0 0 0 .306 1.319l-2.104 6.67c-4.159-1.532-6.288-6.145-4.756-10.304s6.145-6.288 10.304-4.756a8.024 8.024 0 0 1 .492 14.86l-.227-1.071a.364.364 0 0 0-.599-.196l-2.193 1.957a.363.363 0 0 0 .132.619l2.799.893a.365.365 0 0 0 .468-.422l-.223-1.051a8.718 8.718 0 0 0 5.331-8.051zm-8.745-.365a.365.365 0 1 1 0 .73.365.365 0 0 1 0-.73zm1.2 8.494 1.248-1.113.345 1.623-1.593-.51z" style="fill:var(--color3, #2e2f42)"/><path fill="#4d5ae5" d="M37.345 8.677v.729a.364.364 0 0 0 .729 0v-.729a.364.364 0 0 0-.729 0zM30.786 15.236a.364.364 0 0 0 0 .728h.729a.364.364 0 0 0 0-.728h-.729zM44.633 15.965a.365.365 0 1 0 0-.728h-.729a.364.364 0 0 0 0 .728h.729z" style="fill:var(--color2, #4d5ae5)"/></symbol><symbol id="icon-strategy" viewBox="0 0 75 32"><path fill="#f4f4fd" d="M1.143.143h73.143a1 1 0 0 1 1 1v29.714a1 1 0 0 1-1 1H1.143a1 1 0 0 1-1-1V1.143a1 1 0 0 1 1-1z" style="fill:var(--color1, #f4f4fd)"/><path fill="#2e2f42" d="m46.156 19.484-4.825-4.86.535-2.637c.138.054.285.082.433.083h.004a1.234 1.234 0 1 0-1.148-.82l-2.834.346-4.623-4.647a.301.301 0 0 0-.428-.002l-.864.859a.305.305 0 0 0 0 .431l.465.472a8.537 8.537 0 0 0 1.44 10.093.311.311 0 0 0 .083.056 1.823 1.823 0 0 0-.03.313v3.535h-3.657a1.526 1.526 0 0 0-1.524 1.524v.61c0 .168.137.305.305.305h14.019a.305.305 0 0 0 .305-.305v-.61a1.526 1.526 0 0 0-1.524-1.524h-3.657v-1.567c.573.12 1.157.181 1.742.183a8.496 8.496 0 0 0 4.023-1.019l.467.47a.301.301 0 0 0 .428.002l.864-.859a.305.305 0 0 0 0-.431zm-4.282-9.065a.61.61 0 1 1 .429 1.041h-.002a.609.609 0 0 1-.426-1.042h-.001zm-.717 2.002-.342 1.683-.672-.676 1.014-1.008zm-.346-.515-1.097 1.091-.849-.853 1.946-.237zm1.477 11.408c.505 0 .914.409.914.914v.305H29.793v-.305c0-.505.409-.914.914-.914h11.581zm-4.267-1.219v.61h-3.048v-.61h3.048zm-3.047-.609V19.17c0-.739.684-1.341 1.524-1.341s1.524.602 1.524 1.341v2.316h-3.048zm3.657-.969V19.17c0-1.075-.957-1.95-2.133-1.95a2.169 2.169 0 0 0-1.875 1.021 7.924 7.924 0 0 1-1.302-9.078l10.63 10.691a7.899 7.899 0 0 1-5.319.665zm6.451-.391L33.049 8.023l.431-.43 4.534 4.56c.002 0 .003.004.006.005l7.494 7.538-.433.43z" style="fill:var(--color3, #2e2f42)"/><path fill="#4d5ae5" d="M36.5 18.438h-.003a.915.915 0 0 0-.002 1.829h.003a.915.915 0 0 0 .003-1.829zm.214 1.13a.305.305 0 1 1-.216-.521.304.304 0 0 1 .213.521h.003z" style="fill:var(--color2, #4d5ae5)"/></symbol><symbol id="icon-technologies" viewBox="0 0 75 32"><path fill="#f4f4fd" d="M1.143.143h73.143a1 1 0 0 1 1 1v29.714a1 1 0 0 1-1 1H1.143a1 1 0 0 1-1-1V1.143a1 1 0 0 1 1-1z" style="fill:var(--color1, #f4f4fd)"/><path fill="#4d5ae5" d="M46.842 9.442a.305.305 0 0 0-.246-.207l-1.091-.159-.489-.989c-.103-.208-.444-.208-.547 0l-.489.989-1.092.159a.305.305 0 0 0-.169.519l.79.77-.187 1.087a.306.306 0 0 0 .442.321l.977-.514.977.514a.307.307 0 0 0 .321-.023.304.304 0 0 0 .121-.298l-.186-1.087.79-.77a.304.304 0 0 0 .077-.312zm-1.407.759a.304.304 0 0 0-.087.27l.109.637-.572-.3a.31.31 0 0 0-.284 0l-.572.3.109-.637a.307.307 0 0 0-.087-.27l-.463-.451.639-.093a.303.303 0 0 0 .229-.167l.286-.579.286.579c.045.09.13.152.23.167l.639.093-.462.451zM43.505 18.584h-.609v.61h.609v-.61zM43.505 19.803h-.609v.61h.609v-.61z" style="fill:var(--color2, #4d5ae5)"/><path fill="#4d5ae5" d="M44.114 19.194h-.609v.61h.609v-.61zM42.895 19.194h-.61v.61h.61v-.61zM41.371 21.937h-.609v.61h.609v-.61zM41.371 23.156h-.609v.61h.609v-.61zM41.981 22.546h-.61v.61h.61v-.61zM40.762 22.546h-.61v.61h.61v-.61zM37.714 20.718h-.609v.61h.609v-.61zM37.714 21.937h-.609v.61h.609v-.61zM38.324 21.327h-.609v.61h.609v-.61zM37.105 21.327h-.61v.61h.61v-.61zM31.924 10.355h-.609v.61h.609v-.61zM31.924 11.575h-.609v.61h.609v-.61zM32.533 10.965h-.609v.61h.609v-.61zM31.314 10.965h-.61v.61h.61v-.61z" style="fill:var(--color2, #4d5ae5)"/><path fill="#2e2f42" d="M42.694 14.948a1.013 1.013 0 0 0-.679-.403 1.016 1.016 0 0 0-.766.201l-.715.549-1.085.81-.776-.309a3.966 3.966 0 0 0 2.351-3.611c0-2.185-1.784-3.962-3.978-3.962S33.068 10 33.068 12.185c0 .792.237 1.528.64 2.148l-1.579-.014h-.003c-.005 0-.009.002-.013.003a.277.277 0 0 0-.089.018c-.007.003-.015.004-.022.008l-.011.004-1.847.912h-.001l-1.082.52a1.018 1.018 0 0 0 1.012 1.766l.793-.422 1.294-.668.775-.005-3.11 3.095-.001.001-.765.762c-.181.18-.28.418-.28.673s.099.493.28.674a.96.96 0 0 0 1.349 0l.751-.748.995-.743.515.513-1.007 1.002-.001.001-.765.762c-.181.18-.28.418-.28.673s.099.493.28.674a.955.955 0 0 0 1.348 0l1.99-1.981.001-.001.577-.571-.002-.002c.004-.004.009-.005.013-.009l2.952-3.233 1.983.282a.3.3 0 0 0 .15-.019l.028-.013c.011-.006.023-.009.033-.015l1.836-1.219c.007-.005.01-.012.017-.017s.016-.008.023-.015l.727-.681c.378-.354.43-.934.121-1.35zm-12.905 2.064a.408.408 0 0 1-.319.03.41.41 0 0 1-.122-.719l.751-.361.181.528.076.222-.567.301zm1.998-1.045-.885.457-.251-.733 1.158-.572-.023.848zm8.628-3.783c0 .525-.125 1.02-.342 1.463l-2.389-1.085a1.064 1.064 0 0 0-.45-.793l.837-2.777a3.358 3.358 0 0 1 2.345 3.193zm-6.736 0c0-1.848 1.511-3.352 3.368-3.352.145 0 .286.012.426.03l-.818 2.716c-.011 0-.021-.003-.033-.003-.59 0-1.07.479-1.07 1.067s.48 1.067 1.07 1.067c.397 0 .74-.219.925-.54l2.207 1.003a3.369 3.369 0 0 1-6.075-1.986zm3.404.457c0 .252-.207.457-.461.457s-.461-.205-.461-.457.207-.457.461-.457a.46.46 0 0 1 .461.457zm-7.103 8.585a.346.346 0 0 1-.589-.242c0-.091.036-.177.101-.241l.55-.548.486.484-.548.546zm1.836 2.134a.346.346 0 0 1-.589-.242c0-.091.035-.176.101-.241l.55-.548.487.484-.548.546zm1.99-1.982-.001.001-1.009 1.006-.487-.484 1.008-1.003.001-.001c.023-.023.037-.05.051-.077.004-.008.012-.015.015-.023.009-.023.011-.049.015-.073.002-.014.008-.027.008-.041 0-.02-.007-.04-.012-.06-.004-.018-.004-.037-.011-.055a.309.309 0 0 0-.052-.079c-.006-.007-.008-.015-.014-.022l-.001-.001-.918-.914c-.01-.01-.022-.014-.033-.022-.016-.012-.032-.024-.05-.033s-.035-.014-.053-.019a.228.228 0 0 0-.059-.011c-.019-.001-.036.001-.055.003-.02.002-.039.005-.059.012s-.036.016-.054.026c-.011.006-.024.009-.035.016l-1.013.756-.515-.513 1.371-1.363 2.492 2.451-.53.525zm3.896-4.01c-.009-.001-.017.002-.026.002a.293.293 0 0 0-.066.004c-.017.003-.034.006-.05.012a.311.311 0 0 0-.102.062c-.007.006-.016.009-.023.017l-2.685 2.94-2.473-2.432 1.619-1.61a.305.305 0 0 0-.217-.52l-1.268.008.016-.919 1.774.015a3.972 3.972 0 0 0 3.578 1.13c.023.018.045.037.074.049l1.377.549.087.433.102.506-1.716-.244zm2.31.102-.179-.89.827-.617.217.287.325.431-1.189.789zm2.145-1.618-.479.449-.532-.706.475-.364a.414.414 0 0 1 .585.08.407.407 0 0 1-.049.541z" style="fill:var(--color3, #2e2f42)"/><path fill="#2e2f42" d="m36.344 17.454-1.225-1.219a.304.304 0 0 0-.43 0l-1.224 1.219a.308.308 0 0 0 0 .432l1.224 1.219a.304.304 0 0 0 .43 0l1.225-1.219a.307.307 0 0 0 0-.432zm-1.439 1.005-.792-.789.792-.789.793.789-.793.789zM38.38 9.755l-.147.592c.041.01.993.258.993 1.228h.609c0-1.153-.952-1.695-1.455-1.82zM39.835 12.184h-.609v.61h.609v-.61z" style="fill:var(--color3, #2e2f42)"/></symbol><symbol id="icon-twitter" viewBox="0 0 32 32"><path fill="#4d5ae5" d="M32 16c0 4.418-1.791 8.418-4.686 11.314S20.419 32 16 32c-4.418 0-8.418-1.791-11.314-4.686S0 20.419 0 16c0-4.418 1.791-8.418 4.686-11.314S11.581 0 16 0c4.418 0 8.418 1.791 11.314 4.686S32 11.581 32 16z" style="fill:var(--color2, #4d5ae5)"/><path fill="#f4f4fd" d="M22.4 12.031a5.455 5.455 0 0 1-1.512.414 2.608 2.608 0 0 0 1.154-1.45 5.245 5.245 0 0 1-1.664.635 2.623 2.623 0 0 0-4.539 1.795c0 .208.018.408.061.598a7.426 7.426 0 0 1-5.409-2.745 2.628 2.628 0 0 0 .807 3.507 2.591 2.591 0 0 1-1.186-.323v.029c0 1.275.91 2.334 2.102 2.578a2.636 2.636 0 0 1-.688.086c-.168 0-.338-.01-.497-.045a2.65 2.65 0 0 0 2.452 1.828 5.275 5.275 0 0 1-3.882 1.083 7.384 7.384 0 0 0 4.026 1.178c4.829 0 7.469-4 7.469-7.467a6.24 6.24 0 0 0-.01-.339c.521-.37.958-.831 1.315-1.362z" style="fill:var(--color1, #f4f4fd)"/></symbol></defs></svg>